#!OML:ASF E:\emotionWalksFemale\Project 1\Capture day 1\Session 1\Female1.ASF
:FULLY-SPECIFIED
:DEGREES
1904
root 9.06186 15.3454 -5.88531 0.6795 6.28263 -6.10025
lowerback 11.4336 1.23583 -0.728263
upperback 4.25258 1.54451 -0.702549
thorax -1.96975 0.771902 -0.517197
lowerneck -3.18661 -0.401027 -4.53951
upperneck 43.6672 2.2394 -3.69577
head 16.2832 -0.197702 -0.496837
rclavicle -3.18055e-015 -8.74653e-015
rhumerus -29.2716 11.1548 -86.3995
rradius 33.1893
rwrist 11.5635
rhand -7.57021 -51.1197
rfingers 7.12502
rthumb 18.3223 -80.2768
lclavicle -3.18055e-015 -8.74653e-015
lhumerus -27.2619 11.5106 82.0091
lradius 43.9475
lwrist -4.93018
lhand -9.09124 -34.9129
lfingers 7.12502
lthumb 16.8586 -5.6247
rfemur -12.382 4.85828 36.27
rtibia 22.4575
rfoot -12.2503 -20.0004
rtoes -3.21782
lfemur -27.9282 -4.07301 -12.607
ltibia 76.3472
lfoot -10.6974 0.471369
ltoes -22.2663
1905
root 9.05291 15.3383 -5.79876 0.674089 6.278 -6.2277
lowerback 11.5553 1.22971 -0.527618
upperback 4.28831 1.55789 -0.673667
thorax -1.99441 0.779617 -0.604186
lowerneck -3.19993 -0.371714 -4.39276
upperneck 43.4942 2.41117 -4.10528
head 16.2027 -0.14631 -0.677879
rclavicle 1.03368e-014 7.95139e-016
rhumerus -29.118 11.2664 -86.2748
rradius 33.2201
rwrist 11.3693
rhand -7.62146 -50.9825
rfingers 7.12502
rthumb 18.273 -80.1442
lclavicle 1.03368e-014 7.95139e-016
lhumerus -27.2124 11.0166 82.3218
lradius 44.7797
lwrist -4.30373
lhand -9.03593 -34.0121
lfingers 7.12502
lthumb 16.9118 -4.72848
rfemur -12.2279 4.57706 36.5007
rtibia 22.8391
rfoot -12.9004 -19.6758
rtoes -2.31919
lfemur -28.9221 -4.1776 -12.6789
ltibia 76.0576
lfoot -11.5769 1.02051
ltoes -22.802
1906
root 9.04344 15.329 -5.71091 0.696099 6.20897 -6.27018
lowerback 11.5824 1.29228 -0.431413
upperback 4.37479 1.65168 -0.668683
thorax -1.91606 0.827029 -0.664609
lowerneck -3.2767 -0.337625 -4.45039
upperneck 43.4672 2.47146 -4.07423
head 16.2059 -0.12475 -0.644244
rclavicle 1.51076e-014 -5.56597e-015
rhumerus -28.92 11.251 -86.0981
rradius 33.3007
rwrist 11.2574
rhand -7.62686 -50.7332
rfingers 7.12502
rthumb 18.2678 -79.8954
lclavicle 1.51076e-014 -5.56597e-015
lhumerus -27.2786 10.4009 82.6894
lradius 45.7397
lwrist -3.90277
lhand -9.42713 -33.0686
lfingers 7.12502
lthumb 16.5352 -3.7531
rfemur -12.0609 4.41385 36.6484
rtibia 23.1825
rfoot -13.5608 -19.3106
rtoes -2.52574
lfemur -29.87 -4.32273 -12.8221
ltibia 75.6344
lfoot -12.3584 1.53483
ltoes -21.5384
1907
root 9.03331 15.3175 -5.62852 0.772918 6.15987 -6.30313
lowerback 11.6637 1.32194 -0.407524
upperback 4.36021 1.69233 -0.669659
thorax -1.97438 0.847234 -0.68668
lowerneck -3.24852 -0.282861 -4.5774
upperneck 43.5088 2.49499 -3.85434
head 16.216 -0.108703 -0.521247
rclavicle -1.55052e-014 -7.15625e-015
rhumerus -28.8032 11.3296 -86.0451
rradius 33.3182
rwrist 11.1254
rhand -7.80301 -50.4975
rfingers 7.12502
rthumb 18.0984 -79.6755
lclavicle -1.55052e-014 -7.15625e-015
lhumerus -27.4634 9.98757 82.8945
lradius 46.4148
lwrist -3.91989
lhand -10.2039 -32.9223
lfingers 7.12502
lthumb 15.7873 -3.54606
rfemur -11.9925 4.33031 36.7815
rtibia 23.5488
rfoot -14.0109 -18.9624
rtoes -2.90906
lfemur -30.9003 -4.51488 -12.9588
ltibia 75.1203
lfoot -13.1385 1.79259
ltoes -18.4961
1908
root 9.02564 15.3075 -5.54451 0.800215 6.1486 -6.37673
lowerback 11.7689 1.3003 -0.377648
upperback 4.33148 1.66624 -0.650293
thorax -2.06144 0.834075 -0.683166
lowerneck -3.09042 -0.238406 -4.35681
upperneck 43.413 2.57936 -4.05809
head 16.1303 -0.0586218 -0.638285
rclavicle 3.18055e-015 -4.77083e-015
rhumerus -28.7301 11.4857 -86.0714
rradius 33.2768
rwrist 10.9512
rhand -8.22647 -50.214
rfingers 7.12502
rthumb 17.6909 -79.4292
lclavicle 3.18055e-015 -4.77083e-015
lhumerus -27.5002 9.91255 82.9566
lradius 46.6959
lwrist -3.99201
lhand -10.6548 -33.2449
lfingers 7.12502
lthumb 15.353 -3.83493
rfemur -11.8933 4.17547 36.9449
rtibia 23.9725
rfoot -14.2205 -18.9537
rtoes -2.27945
lfemur -31.8076 -4.75123 -13.065
ltibia 74.521
lfoot -14.0704 1.84601
ltoes -16.0248
1909
root 9.0223 15.2968 -5.4518 0.787335 6.09205 -6.39797
lowerback 11.6782 1.3206 -0.316488
upperback 4.43718 1.70203 -0.633674
thorax -1.9006 0.852649 -0.70094
lowerneck -2.92737 -0.245873 -4.10652
upperneck 43.2023 2.61866 -4.37938
head 15.9838 -0.0324096 -0.814768
rclavicle 3.69739e-014 -3.18055e-015
rhumerus -28.4601 11.5051 -85.9555
rradius 33.1418
rwrist 10.6392
rhand -8.69911 -49.798
rfingers 7.12502
rthumb 17.2361 -79.0536
lclavicle 3.69739e-014 -3.18055e-015
lhumerus -27.1958 9.89825 83.1416
lradius 46.802
lwrist -4.08541
lhand -10.709 -33.2846
lfingers 7.12502
lthumb 15.3008 -3.87063
rfemur -11.6697 3.95003 37.0436
rtibia 24.3653
rfoot -14.5043 -19.0012
rtoes -1.45853
lfemur -32.4821 -5.01135 -13.2546
ltibia 73.8057
lfoot -15.0124 2.16814
ltoes -16.2911
1910
root 9.01764 15.2792 -5.36448 0.845291 6.00708 -6.4388
lowerback 11.6651 1.3451 -0.209776
upperback 4.50054 1.74707 -0.614499
thorax -1.82458 0.875963 -0.745492
lowerneck -2.95154 -0.227675 -4.23176
upperneck 43.1529 2.62252 -4.26458
head 15.9589 -0.0350933 -0.739386
rclavicle -4.53229e-014 -7.95139e-015
rhumerus -28.2192 11.5232 -85.8168
rradius 33.0851
rwrist 10.238
rhand -8.94047 -49.457
rfingers 7.12502
rthumb 17.0037 -78.7328
lclavicle -4.53229e-014 -7.95139e-015
lhumerus -26.8237 9.84032 83.3427
lradius 46.8408
lwrist -4.10786
lhand -10.6819 -33.3697
lfingers 7.12502
lthumb 15.3269 -3.95774
rfemur -11.5003 3.67777 37.1677
rtibia 24.6466
rfoot -14.7999 -19.3519
rtoes -2.54509
lfemur -33.283 -5.24425 -13.4189
ltibia 73.0239
lfoot -15.7528 2.60617
ltoes -19.0092
1911
root 9.01031 15.266 -5.28279 0.897738 5.96205 -6.54535
lowerback 11.7674 1.33296 -0.104297
upperback 4.53393 1.74335 -0.565973
thorax -1.84383 0.874532 -0.756191
lowerneck -3.07794 -0.185955 -4.43735
upperneck 43.2037 2.66624 -4.08537
head 16.0126 -0.0309387 -0.618596
rclavicle -1.47101e-014 -2.54444e-014
rhumerus -28.1295 11.3906 -85.6757
rradius 33.2318
rwrist 10.2882
rhand -8.9592 -49.2416
rfingers 7.12502
rthumb 16.9857 -78.5189
lclavicle -1.47101e-014 -2.54444e-014
lhumerus -26.6396 9.85457 83.4747
lradius 46.9831
lwrist -4.06397
lhand -10.6211 -33.6676
lfingers 7.12502
lthumb 15.3855 -4.26013
rfemur -11.3259 3.48611 37.3736
rtibia 24.8634
rfoot -15.1093 -19.391
rtoes -2.81177
lfemur -34.1824 -5.46874 -13.4712
ltibia 72.1766
lfoot -16.1934 2.63556
ltoes -19.2196
1912
root 9.0035 15.2592 -5.19643 0.861576 5.88864 -6.74876
lowerback 11.8978 1.32954 0.0133065
upperback 4.54543 1.75404 -0.461195
thorax -1.90236 0.879746 -0.71839
lowerneck -3.01475 -0.157267 -4.54135
upperneck 43.217 2.71933 -4.07196
head 16.0058 -0.0230699 -0.587304
rclavicle -6.75868e-015 1.82882e-014
rhumerus -28.0589 11.1997 -85.5358
rradius 33.2688
rwrist 10.5567
rhand -8.95952 -49.0417
rfingers 7.12502
rthumb 16.9854 -78.3191
lclavicle -6.75868e-015 1.82882e-014
lhumerus -26.7268 9.84516 83.5826
lradius 47.2235
lwrist -4.08199
lhand -10.6356 -33.9438
lfingers 7.12502
lthumb 15.3715 -4.53525
rfemur -11.0205 3.44559 37.6918
rtibia 25.0578
rfoot -15.4645 -19.364
rtoes -2.5005
lfemur -34.9205 -5.66596 -13.3896
ltibia 71.2088
lfoot -16.3601 2.82463
ltoes -17.9014
1913
root 9.00147 15.2544 -5.11011 0.891436 5.80359 -6.82067
lowerback 12.025 1.34461 0.086336
upperback 4.50805 1.78234 -0.425158
thorax -2.00892 0.893516 -0.729899
lowerneck -3.07224 -0.139613 -4.46213
upperneck 43.3716 2.78508 -4.16339
head 16.1096 0.00125355 -0.63701
rclavicle -6.36111e-015 -7.15625e-015
rhumerus -27.9809 11.1087 -85.4625
rradius 33.2351
rwrist 10.7418
rhand -8.75504 -48.9802
rfingers 7.12502
rthumb 17.1822 -78.2405
lclavicle -6.36111e-015 -7.15625e-015
lhumerus -26.8431 9.6209 83.6548
lradius 47.3962
lwrist -3.92685
lhand -10.858 -34.1982
lfingers 7.12502
lthumb 15.1572 -4.77333
rfemur -10.745 3.31601 37.8335
rtibia 25.1902
rfoot -15.8396 -19.275
rtoes -2.63215
lfemur -35.5989 -5.9402 -13.4695
ltibia 70.0778
lfoot -16.5812 3.27257
ltoes -17.6602
1914
root 9.00072 15.2498 -5.02261 0.984303 5.72564 -6.68337
lowerback 11.9569 1.39014 0.0581415
upperback 4.57368 1.83799 -0.484011
thorax -1.90183 0.921935 -0.779485
lowerneck -3.26881 -0.171071 -4.26506
upperneck 43.4517 2.80513 -4.36978
head 16.2089 0.0121165 -0.763191
rclavicle 1.86858e-014 0
rhumerus -27.7728 11.1495 -85.4404
rradius 33.3145
rwrist 10.5802
rhand -8.44031 -49.2436
rfingers 7.12502
rthumb 17.4851 -78.4772
lclavicle 1.86858e-014 0
lhumerus -26.8173 9.32885 83.7639
lradius 47.6261
lwrist -3.67183
lhand -10.8102 -34.2078
lfingers 7.12502
lthumb 15.2033 -4.78634
rfemur -10.4907 3.16337 37.7359
rtibia 25.2885
rfoot -16.1935 -19.1513
rtoes -3.33757
lfemur -36.1884 -6.25848 -13.7816
ltibia 68.809
lfoot -17.0029 3.78792
ltoes -18.0955
